<?xml version="1.0" encoding="iso-8859-1"?>
<!-- Generator: Adobe Illustrator 19.0.0, SVG Export Plug-In . SVG Version: 6.00 Build 0)  -->
<svg version="1.1" id="Capa_1" xmlns="http://www.w3.org/2000/svg" xmlns:xlink="http://www.w3.org/1999/xlink" x="0px" y="0px"
	 viewBox="0 0 419.088 419.088" style="enable-background:new 0 0 419.088 419.088;" xml:space="preserve">
<g>
	<g>
		<path d="M305.544,0h-256c-26.512,0-48,21.488-48,48v208c0,26.512,21.488,48,48,48H214.12c-3.008-10.144-4.688-20.864-4.688-32
			c0-61.904,50.096-112,112-112c11.168,0,21.936,1.68,32.112,4.72V48C353.544,21.488,332.056,0,305.544,0z M129.544,224V80l128,72
			L129.544,224z"/>
	</g>
</g>
<g>
	<g>
		<path d="M389.32,204.112C370.568,185.376,346.008,176,321.432,176c-77.392,0-123.456,87.616-78.048,151.424l-69.04,69.04
			l22.624,22.624l69.04-69.04C282.584,361.856,301.944,368,321.432,368C406.184,368,449.976,264.768,389.32,204.112z M321.432,336
			c-35.376,0-64-28.624-64-64c0-35.376,28.624-64,64-64c35.376,0,64,28.624,64,64C385.432,307.376,356.808,336,321.432,336z"/>
	</g>
</g>
<g>
</g>
<g>
</g>
<g>
</g>
<g>
</g>
<g>
</g>
<g>
</g>
<g>
</g>
<g>
</g>
<g>
</g>
<g>
</g>
<g>
</g>
<g>
</g>
<g>
</g>
<g>
</g>
<g>
</g>
</svg>
